# xmcd
#
# Track frame offsets: 
#        225
#        19139
#        35618
#        50567
#        68251
#        92646
#        113058
#        133937
#        149844
#        165916
#
# Disc length: 2459 seconds
#
# Revision: 4
# Processed by: cddbd v1.5.2PL0 Copyright (c) Steve Scherf et al.
# Submitted via: ExactAudioCopy v1.0b4
#
DISCID=8709980a
DTITLE=林憶蓮 - Wonderful World
DYEAR=1997
DGENRE=Pop
TTITLE0=Rhythm Of My Heart
TTITLE1=林憶蓮, 齊豫 and 劉美君 - What a Wonderful World
TTITLE2=Waiting For
TTITLE3=林憶蓮 and 齊豫  - The Rose
TTITLE4=Take a Bow
TTITLE5=Seasons of Love
TTITLE6=Because You Loved Me
TTITLE7=If You Don't Know Me by Now
TTITLE8=Daddy's Home
TTITLE9=To Love Somebody
EXTD=YEAR: 1997
EXTT0=
EXTT1=
EXTT2=
EXTT3=
EXTT4=
EXTT5=
EXTT6=
EXTT7=
EXTT8=
EXTT9=
PLAYORDER=
